<svg width="432" height="78" viewBox="0 0 432 78" fill="none" xmlns="http://www.w3.org/2000/svg">
<path d="M82.6845 65.3615V18.8021H68.3008V8.21436H109.467V18.8021H94.8476V65.3615H82.6845Z" fill="#131A59"/>
<path d="M113.473 65.3111V8.38281H125.468V34.3725L129.37 28.2791L141.534 9.84726H156.405L138.674 33.4636L157.347 65.2943H143.199L130.077 41.3581L125.468 47.1991V65.2943H113.473V65.3111Z" fill="#131A59"/>
<path d="M15.0228 35.1804C24.4773 52.3666 38.7601 55.952 38.7601 55.952C38.7601 55.952 27.3204 52.3835 17.7481 34.2041C12.4488 24.155 14.3162 4.89832 26.4456 0H11.9105C10.6319 4.98249 7.38509 21.2597 15.0396 35.1804H15.0228Z" fill="#4CA9E0"/>
<path d="M15.023 35.1804C7.36851 21.2766 10.6154 4.99932 11.8939 0H9.6228C4.30671 0 0 4.30918 0 9.62832V9.93131C0 9.93131 0.471046 20.4518 11.221 36.8637C21.9709 53.2756 38.7435 55.9352 38.7435 55.9352C38.7435 55.9352 24.4776 52.3498 15.0062 35.1636L15.023 35.1804Z" fill="#173B95"/>
<path d="M63.9433 8.21434H49.1054C42.5107 8.21434 37.2619 9.83028 33.3758 13.0453C29.4897 16.2604 27.5382 20.3507 27.5382 25.3164C27.5382 29.3226 28.9681 32.7565 31.8449 35.6349C34.4356 38.2271 38.2208 40.3985 43.1836 42.1491C46.6828 43.3947 49.139 44.6067 50.5858 45.785C52.0157 46.9633 52.7391 48.4446 52.7391 50.1783C52.7391 52.0973 51.9653 53.6122 50.4176 54.7063C48.8698 55.8005 46.6155 56.3559 43.6883 56.3559C41.8714 56.3559 40.105 56.1876 38.3891 55.8846C35.832 55.3797 21.0276 51.8448 11.2366 36.8805C0.486671 20.4686 0.015625 9.94811 0.015625 9.94811V39.3886C0.015625 44.5394 2.45497 49.3704 6.59345 52.4508C11.7077 56.2718 18.6724 60.6146 26.7811 63.4257C28.5476 64.3515 30.8523 65.1595 33.7291 65.8496C36.7404 66.5734 39.8358 66.9437 42.9481 66.9437C50.4512 66.9437 56.2552 65.1763 60.3768 61.6246C64.0947 58.4264 65.9621 54.2855 65.9621 49.2189C65.9621 45.2295 64.7676 41.863 62.3619 39.1361C59.9562 36.4092 56.2047 34.1199 51.1241 32.2683C47.0529 30.7534 44.3276 29.5077 42.9818 28.5651C41.3331 27.3868 40.5256 25.956 40.5256 24.2559C40.5256 22.5558 41.2322 21.3102 42.6453 20.3002C44.0584 19.2903 46.1277 18.7853 48.853 18.7853H63.9938V8.19751L63.9433 8.21434Z" fill="#131A59"/>
<path d="M173.144 10.1333C173.027 9.98178 172.875 9.86395 172.673 9.77979C172.471 9.69562 172.236 9.66196 171.95 9.66196C171.664 9.66196 171.445 9.69562 171.243 9.77979C171.042 9.86395 170.89 9.96495 170.789 10.0996C170.688 10.2343 170.638 10.4026 170.638 10.5709C170.638 10.8402 170.739 11.0591 170.974 11.2106C171.21 11.3621 171.529 11.4967 171.933 11.5809L172.657 11.7492C173.414 11.9175 174.019 12.2037 174.44 12.5909C174.86 12.978 175.079 13.483 175.079 14.1395C175.079 14.6276 174.961 15.0653 174.709 15.4188C174.457 15.7891 174.103 16.0584 173.632 16.2604C173.161 16.4624 172.606 16.5465 171.95 16.5465C171.294 16.5465 170.722 16.4455 170.251 16.2436C169.78 16.0416 169.393 15.7386 169.124 15.3514C168.855 14.9643 168.72 14.4761 168.703 13.9038H170.335C170.352 14.1731 170.436 14.392 170.57 14.5771C170.705 14.7623 170.89 14.8969 171.126 14.9979C171.361 15.0821 171.63 15.1326 171.933 15.1326C172.236 15.1326 172.472 15.0821 172.707 14.9979C172.926 14.9138 173.094 14.7959 173.212 14.6444C173.329 14.493 173.397 14.3078 173.397 14.1058C173.397 13.9206 173.346 13.7691 173.245 13.6513C173.144 13.5167 172.993 13.4157 172.791 13.3315C172.589 13.2473 172.337 13.1632 172.017 13.079L171.126 12.8602C170.419 12.6918 169.864 12.4225 169.494 12.0522C169.107 11.6987 168.922 11.2274 168.922 10.6383C168.922 10.1501 169.056 9.72929 169.309 9.35897C169.561 8.98865 169.931 8.70249 170.402 8.5005C170.873 8.29851 171.395 8.19751 171.984 8.19751C172.572 8.19751 173.094 8.29851 173.548 8.5005C174.002 8.70249 174.356 8.98865 174.608 9.35897C174.86 9.72929 174.978 10.1501 174.995 10.6214H173.38C173.363 10.4026 173.296 10.2174 173.178 10.0659L173.144 10.1333Z" fill="#241C1D"/>
<path d="M177.284 16.193C176.83 15.9405 176.494 15.5702 176.241 15.0989C176.006 14.6275 175.871 14.0721 175.871 13.4492C175.871 12.8264 175.989 12.271 176.241 11.7996C176.477 11.3283 176.83 10.958 177.284 10.7055C177.738 10.4362 178.26 10.3184 178.866 10.3184C179.471 10.3184 179.993 10.453 180.447 10.7055C180.901 10.9748 181.254 11.3283 181.49 11.7996C181.726 12.271 181.843 12.8264 181.843 13.4492C181.843 14.0721 181.726 14.6275 181.49 15.0989C181.254 15.5702 180.901 15.9405 180.447 16.193C179.993 16.4623 179.471 16.5801 178.866 16.5801C178.26 16.5801 177.722 16.4455 177.284 16.193ZM179.589 15.0652C179.791 14.8969 179.925 14.678 180.026 14.4087C180.127 14.1226 180.178 13.8027 180.178 13.4492C180.178 13.0958 180.127 12.7591 180.026 12.4898C179.925 12.2036 179.791 11.9848 179.589 11.8333C179.387 11.665 179.168 11.5976 178.882 11.5976C178.596 11.5976 178.361 11.6818 178.159 11.8333C177.957 11.9848 177.806 12.2205 177.722 12.4898C177.621 12.7759 177.57 13.0958 177.57 13.4492C177.57 13.8027 177.621 14.1226 177.722 14.4087C177.823 14.6949 177.974 14.9137 178.159 15.0652C178.344 15.2167 178.596 15.3008 178.882 15.3008C179.168 15.3008 179.387 15.2167 179.589 15.0652Z" fill="#241C1D"/>
<path d="M184.551 16.4791H182.902V8.36572H184.551V16.4791Z" fill="#241C1D"/>
<path d="M189.73 10.3857H191.379V16.4624H189.797V15.3682H189.73C189.595 15.7385 189.36 16.0247 189.04 16.2267C188.72 16.4287 188.334 16.5465 187.896 16.5465C187.492 16.5465 187.139 16.4455 186.819 16.2772C186.517 16.092 186.264 15.8227 186.096 15.4861C185.928 15.1326 185.844 14.7286 185.844 14.2741V10.4026H187.492V13.9879C187.492 14.2236 187.543 14.4256 187.627 14.6108C187.711 14.7959 187.846 14.9306 187.997 15.0147C188.149 15.1157 188.334 15.1662 188.552 15.1662C188.754 15.1662 188.956 15.1157 189.141 15.0147C189.326 14.9137 189.461 14.7791 189.578 14.5771C189.696 14.3751 189.747 14.1563 189.747 13.8869V10.4026L189.73 10.3857Z" fill="#241C1D"/>
<path d="M195.888 11.6315H192.254V10.3858H195.888V11.6315ZM194.744 8.93823V14.6109C194.744 14.7624 194.761 14.897 194.811 14.9812C194.861 15.0653 194.929 15.1327 195.013 15.1663C195.097 15.2 195.198 15.2168 195.316 15.2168C195.366 15.2168 195.433 15.2168 195.518 15.2168C195.602 15.2168 195.686 15.2168 195.77 15.2168H195.972V16.513C195.719 16.5466 195.433 16.5803 195.097 16.5803C194.693 16.5803 194.323 16.513 194.02 16.3951C193.718 16.2773 193.482 16.0753 193.314 15.8228C193.146 15.5703 193.061 15.2505 193.061 14.8634V8.9719H194.727L194.744 8.93823Z" fill="#241C1D"/>
<path d="M197.301 9.47682C197.166 9.39266 197.048 9.29166 196.981 9.17383C196.897 9.03917 196.863 8.90451 196.863 8.75301C196.863 8.60152 196.897 8.46686 196.981 8.3322C197.065 8.19753 197.166 8.09654 197.317 8.02921C197.469 7.96187 197.603 7.91138 197.772 7.91138C197.94 7.91138 198.075 7.94504 198.226 8.02921C198.377 8.11337 198.478 8.19753 198.562 8.3322C198.647 8.46686 198.68 8.60152 198.68 8.75301C198.68 8.90451 198.647 9.03917 198.562 9.17383C198.478 9.30849 198.377 9.40949 198.226 9.47682C198.091 9.56098 197.94 9.59465 197.772 9.59465C197.603 9.59465 197.452 9.56098 197.317 9.47682H197.301ZM196.914 10.3858H198.562V16.4624H196.914V10.3858Z" fill="#241C1D"/>
<path d="M201.019 16.193C200.564 15.9405 200.228 15.5702 199.976 15.0989C199.74 14.6275 199.605 14.0721 199.605 13.4492C199.605 12.8264 199.723 12.271 199.976 11.7996C200.211 11.3283 200.564 10.958 201.019 10.7055C201.473 10.4362 201.994 10.3184 202.6 10.3184C203.206 10.3184 203.727 10.453 204.181 10.7055C204.636 10.9748 204.989 11.3283 205.224 11.7996C205.46 12.271 205.578 12.8264 205.578 13.4492C205.578 14.0721 205.46 14.6275 205.224 15.0989C204.989 15.5702 204.636 15.9405 204.181 16.193C203.727 16.4623 203.206 16.5801 202.6 16.5801C201.994 16.5801 201.456 16.4455 201.019 16.193ZM203.307 15.0652C203.508 14.8969 203.643 14.678 203.744 14.4087C203.845 14.1226 203.895 13.8027 203.895 13.4492C203.895 13.0958 203.845 12.7591 203.744 12.4898C203.643 12.2036 203.508 11.9848 203.307 11.8333C203.105 11.665 202.886 11.5976 202.6 11.5976C202.314 11.5976 202.078 11.6818 201.877 11.8333C201.675 11.9848 201.523 12.2205 201.439 12.4898C201.338 12.7759 201.288 13.0958 201.288 13.4492C201.288 13.8027 201.338 14.1226 201.439 14.4087C201.54 14.6949 201.692 14.9137 201.877 15.0652C202.062 15.2167 202.314 15.3008 202.6 15.3008C202.886 15.3008 203.105 15.2167 203.307 15.0652Z" fill="#241C1D"/>
<path d="M208.285 16.4791H206.637V10.4025H208.218V11.463H208.285C208.42 11.1095 208.655 10.8233 208.975 10.6213C209.295 10.4194 209.682 10.3184 210.119 10.3184C210.54 10.3184 210.91 10.4025 211.213 10.5877C211.532 10.7728 211.768 11.0422 211.953 11.3788C212.121 11.7323 212.205 12.1363 212.205 12.5908V16.4623H210.556V12.8769C210.556 12.6244 210.506 12.4224 210.439 12.2373C210.355 12.0521 210.237 11.9175 210.069 11.8333C209.9 11.7323 209.699 11.6818 209.48 11.6818C209.261 11.6818 209.042 11.7323 208.874 11.8333C208.706 11.9343 208.555 12.069 208.47 12.271C208.369 12.4561 208.319 12.6918 208.319 12.9443V16.4623L208.285 16.4791Z" fill="#241C1D"/>
<path d="M215.841 8.36572H222.469V9.74601H219.98V16.4623H218.314V9.74601H215.824V8.36572H215.841Z" fill="#241C1D"/>
<path d="M223.749 16.193C223.295 15.9405 222.958 15.5702 222.706 15.0989C222.471 14.6275 222.336 14.0721 222.336 13.4492C222.336 12.8264 222.454 12.271 222.706 11.7996C222.942 11.3283 223.295 10.958 223.749 10.7055C224.203 10.453 224.725 10.3184 225.33 10.3184C225.936 10.3184 226.458 10.453 226.912 10.7055C227.366 10.9748 227.703 11.3283 227.955 11.7996C228.207 12.271 228.308 12.8264 228.308 13.4492C228.308 14.0721 228.19 14.6275 227.955 15.0989C227.719 15.5702 227.366 15.9405 226.912 16.193C226.458 16.4623 225.936 16.5801 225.33 16.5801C224.725 16.5801 224.186 16.4455 223.749 16.193ZM226.054 15.0652C226.256 14.8969 226.39 14.678 226.491 14.4087C226.592 14.1226 226.643 13.8027 226.643 13.4492C226.643 13.0958 226.592 12.7591 226.491 12.4898C226.39 12.2036 226.256 11.9848 226.054 11.8333C225.869 11.665 225.633 11.5976 225.347 11.5976C225.061 11.5976 224.826 11.6818 224.624 11.8333C224.422 11.9848 224.271 12.2205 224.186 12.4898C224.086 12.7759 224.035 13.0958 224.035 13.4492C224.035 13.8027 224.086 14.1226 224.186 14.4087C224.287 14.6949 224.439 14.9137 224.624 15.0652C224.809 15.2167 225.061 15.3008 225.347 15.3008C225.633 15.3008 225.852 15.2167 226.054 15.0652Z" fill="#241C1D"/>
<path d="M232.059 8.36572H233.741V11.9679H233.842L236.786 8.36572H238.805L235.777 12.0016L238.838 16.4791H236.82L234.582 13.1294L233.741 14.173V16.4959H232.059V8.38255V8.36572Z" fill="#241C1D"/>
<path d="M240.319 16.2098C239.865 15.9573 239.512 15.587 239.276 15.1157C239.041 14.6444 238.906 14.0889 238.906 13.4661C238.906 12.8433 239.024 12.2878 239.276 11.8165C239.512 11.3452 239.865 10.9748 240.303 10.7055C240.74 10.4362 241.261 10.3184 241.85 10.3184C242.389 10.3184 242.876 10.4362 243.314 10.655C243.751 10.8907 244.088 11.2273 244.323 11.6986C244.576 12.1531 244.693 12.7254 244.693 13.3987V13.8701H239.579V12.8264H243.129C243.129 12.5908 243.078 12.372 242.961 12.17C242.86 11.9848 242.708 11.8333 242.523 11.7155C242.338 11.6145 242.119 11.5471 241.867 11.5471C241.615 11.5471 241.379 11.5976 241.177 11.7155C240.975 11.8333 240.824 12.0016 240.706 12.2036C240.589 12.4056 240.538 12.6244 240.538 12.8769V13.8532C240.538 14.1562 240.589 14.4255 240.706 14.6444C240.824 14.8632 240.992 15.0315 241.194 15.1662C241.396 15.3008 241.648 15.3513 241.934 15.3513C242.119 15.3513 242.288 15.3177 242.439 15.2672C242.591 15.2167 242.725 15.1494 242.826 15.0652C242.927 14.981 243.011 14.88 243.078 14.7622H244.66C244.576 15.1325 244.424 15.4523 244.172 15.7385C243.936 16.0078 243.617 16.2266 243.23 16.3781C242.843 16.5296 242.405 16.597 241.918 16.597C241.295 16.597 240.774 16.4623 240.319 16.2098Z" fill="#241C1D"/>
<path d="M245.701 18.7348V17.4387C245.835 17.4387 246.054 17.4555 246.374 17.4555C246.508 17.4555 246.609 17.4555 246.71 17.4218C246.794 17.405 246.878 17.3545 246.962 17.2703C247.046 17.1862 247.114 17.0683 247.164 16.9L247.265 16.6475L245.078 10.3857H246.828L248.106 14.8632H248.174L249.452 10.3857H251.202L248.83 17.1357C248.645 17.6575 248.375 18.0615 248.005 18.3308C247.635 18.6001 247.147 18.7516 246.542 18.7516C246.121 18.7516 245.852 18.7516 245.701 18.7179V18.7348Z" fill="#241C1D"/>
<path d="M254.684 10.3857H258.368V11.0591H255.441V13.0958H258.183V13.7523H255.441V15.789H258.418V16.4624H254.684V10.3857Z" fill="#241C1D"/>
<path d="M260.204 16.4791H259.48V11.9174H260.17V12.6244H260.221C260.338 12.3887 260.507 12.1868 260.725 12.0521C260.944 11.9174 261.23 11.8501 261.55 11.8501C261.869 11.8501 262.139 11.9174 262.357 12.0353C262.593 12.1531 262.761 12.3551 262.896 12.6076C263.013 12.8601 263.081 13.1799 263.081 13.567V16.4623H262.357V13.6175C262.357 13.3819 262.324 13.1799 262.239 13.0116C262.155 12.8432 262.038 12.7086 261.886 12.6244C261.735 12.5402 261.55 12.4897 261.331 12.4897C261.112 12.4897 260.91 12.5402 260.742 12.6412C260.574 12.7422 260.439 12.8769 260.338 13.0621C260.238 13.2472 260.187 13.466 260.187 13.7354V16.4791H260.204Z" fill="#241C1D"/>
<path d="M265.134 18.1289C264.848 18.0279 264.629 17.8764 264.461 17.6745C264.293 17.4725 264.192 17.2368 264.175 16.9506H264.932C264.982 17.1863 265.1 17.3546 265.302 17.4725C265.504 17.5903 265.773 17.6408 266.093 17.6408C266.496 17.6408 266.799 17.5566 267.018 17.3715C267.237 17.1863 267.354 16.917 267.354 16.5467V15.6209H267.27C267.186 15.7724 267.102 15.8902 267.018 15.9912C266.934 16.0922 266.799 16.1763 266.614 16.2605C266.429 16.3447 266.21 16.3783 265.958 16.3783C265.588 16.3783 265.252 16.2773 264.966 16.109C264.68 15.9238 264.444 15.6714 264.276 15.3179C264.108 14.9812 264.023 14.5772 264.023 14.1059C264.023 13.6346 264.108 13.2474 264.276 12.894C264.444 12.5405 264.663 12.288 264.966 12.1028C265.252 11.9177 265.605 11.8335 265.975 11.8335C266.227 11.8335 266.446 11.8672 266.614 11.9513C266.782 12.0355 266.917 12.1197 267.001 12.2206C267.085 12.3216 267.186 12.4395 267.27 12.5741C267.27 12.5741 267.287 12.6078 267.304 12.6246H267.354V11.9008H268.061V16.5803C268.061 16.9506 267.977 17.2705 267.809 17.523C267.64 17.7755 267.405 17.9606 267.102 18.0784C266.799 18.1963 266.463 18.2636 266.076 18.2636C265.689 18.2636 265.386 18.2131 265.1 18.1121L265.134 18.1289ZM266.782 15.5704C266.984 15.4357 267.119 15.2505 267.22 15.0149C267.321 14.7792 267.371 14.4931 267.371 14.1564C267.371 13.8198 267.321 13.5336 267.22 13.2811C267.119 13.0286 266.967 12.8435 266.782 12.7088C266.597 12.5741 266.345 12.5068 266.076 12.5068C265.807 12.5068 265.554 12.5741 265.352 12.7256C265.151 12.8771 265.016 13.0623 264.915 13.3148C264.814 13.5673 264.764 13.8534 264.764 14.1564C264.764 14.4594 264.814 14.7624 264.915 14.998C265.016 15.2337 265.167 15.4189 265.352 15.5535C265.554 15.6882 265.79 15.7555 266.076 15.7555C266.362 15.7555 266.581 15.6882 266.782 15.5704Z" fill="#241C1D"/>
<path d="M269.338 11.0928C269.338 11.0928 269.204 10.9918 269.153 10.9245C269.103 10.8572 269.086 10.773 269.086 10.6888C269.086 10.6047 269.103 10.5205 269.153 10.4532C269.204 10.3859 269.254 10.3185 269.338 10.2849C269.422 10.2344 269.507 10.2175 269.591 10.2175C269.675 10.2175 269.759 10.2344 269.843 10.2849C269.927 10.3185 269.978 10.3859 270.028 10.4532C270.078 10.5205 270.095 10.6047 270.095 10.6888C270.095 10.773 270.078 10.8572 270.028 10.9245C269.978 10.9918 269.91 11.0592 269.843 11.0928C269.759 11.1433 269.675 11.1602 269.591 11.1602C269.507 11.1602 269.406 11.1433 269.338 11.0928ZM269.237 11.9176H269.961V16.4793H269.237V11.9176Z" fill="#241C1D"/>
<path d="M271.829 16.4791H271.105V11.9174H271.795V12.6244H271.846C271.963 12.3887 272.132 12.1868 272.35 12.0521C272.569 11.9174 272.855 11.8501 273.175 11.8501C273.494 11.8501 273.764 11.9174 273.982 12.0353C274.218 12.1531 274.386 12.3551 274.521 12.6076C274.638 12.8601 274.706 13.1799 274.706 13.567V16.4623H273.982V13.6175C273.982 13.3819 273.949 13.1799 273.864 13.0116C273.78 12.8432 273.663 12.7086 273.511 12.6244C273.36 12.5402 273.175 12.4897 272.956 12.4897C272.737 12.4897 272.535 12.5402 272.367 12.6412C272.199 12.7422 272.064 12.8769 271.963 13.0621C271.862 13.2472 271.812 13.466 271.812 13.7354V16.4791H271.829Z" fill="#241C1D"/>
<path d="M276.672 16.2773C276.353 16.0922 276.1 15.806 275.932 15.4525C275.764 15.099 275.68 14.6951 275.68 14.2237C275.68 13.7524 275.764 13.3484 275.932 12.9781C276.1 12.6246 276.353 12.3385 276.655 12.1365C276.958 11.9345 277.328 11.8335 277.732 11.8335C278.069 11.8335 278.405 11.9177 278.691 12.0523C278.994 12.2038 279.229 12.4563 279.414 12.793C279.599 13.1296 279.684 13.5673 279.684 14.1059V14.4089H276.151V13.8029H278.943C278.943 13.5504 278.893 13.3316 278.792 13.1296C278.691 12.9276 278.54 12.7761 278.355 12.6583C278.169 12.5405 277.951 12.49 277.698 12.49C277.429 12.49 277.194 12.5573 276.992 12.692C276.79 12.8266 276.639 12.995 276.521 13.2138C276.403 13.4326 276.353 13.6683 276.353 13.9208V14.3247C276.353 14.6614 276.42 14.9476 276.538 15.1832C276.655 15.4189 276.824 15.604 277.026 15.7219C277.227 15.8397 277.48 15.907 277.766 15.907C277.934 15.907 278.102 15.8902 278.237 15.8397C278.371 15.7892 278.489 15.7219 278.59 15.6545C278.691 15.5704 278.758 15.4862 278.826 15.3852H279.599C279.532 15.6209 279.414 15.8229 279.246 15.9912C279.078 16.1595 278.876 16.2942 278.624 16.3952C278.371 16.4962 278.085 16.5467 277.783 16.5467C277.345 16.5467 276.975 16.4457 276.655 16.2605L276.672 16.2773Z" fill="#241C1D"/>
<path d="M281.418 16.2773C281.099 16.0922 280.846 15.806 280.678 15.4525C280.51 15.099 280.426 14.6951 280.426 14.2237C280.426 13.7524 280.51 13.3484 280.678 12.9781C280.846 12.6246 281.099 12.3385 281.402 12.1365C281.704 11.9345 282.074 11.8335 282.478 11.8335C282.815 11.8335 283.151 11.9177 283.437 12.0523C283.74 12.2038 283.975 12.4563 284.161 12.793C284.346 13.1296 284.43 13.5673 284.43 14.1059V14.4089H280.897V13.8029H283.689C283.689 13.5504 283.639 13.3316 283.538 13.1296C283.437 12.9276 283.286 12.7761 283.101 12.6583C282.916 12.5405 282.697 12.49 282.445 12.49C282.175 12.49 281.94 12.5573 281.738 12.692C281.536 12.8266 281.385 12.995 281.267 13.2138C281.149 13.4326 281.099 13.6683 281.099 13.9208V14.3247C281.099 14.6614 281.166 14.9476 281.284 15.1832C281.402 15.4189 281.57 15.604 281.772 15.7219C281.974 15.8397 282.226 15.907 282.512 15.907C282.68 15.907 282.848 15.8902 282.983 15.8397C283.117 15.7892 283.235 15.7219 283.336 15.6545C283.437 15.5704 283.504 15.4862 283.572 15.3852H284.346C284.278 15.6209 284.161 15.8229 283.992 15.9912C283.824 16.1595 283.622 16.2942 283.37 16.3952C283.117 16.4962 282.831 16.5467 282.529 16.5467C282.091 16.5467 281.721 16.4457 281.402 16.2605L281.418 16.2773Z" fill="#241C1D"/>
<path d="M285.387 11.9177H286.076V12.6078H286.127C286.211 12.3721 286.362 12.187 286.581 12.0523C286.8 11.9177 287.035 11.8335 287.305 11.8335C287.523 11.8335 287.658 11.8335 287.675 11.8335V12.5573C287.675 12.5573 287.557 12.5405 287.49 12.5236C287.405 12.5236 287.321 12.5236 287.254 12.5236C287.035 12.5236 286.85 12.5741 286.665 12.6583C286.497 12.7593 286.362 12.8771 286.262 13.0455C286.161 13.2138 286.11 13.3821 286.11 13.5841V16.4625H285.387V11.9008V11.9177Z" fill="#241C1D"/>
<path d="M288.502 11.0928C288.502 11.0928 288.368 10.9918 288.317 10.9245C288.267 10.8572 288.25 10.773 288.25 10.6888C288.25 10.6047 288.267 10.5205 288.317 10.4532C288.368 10.3859 288.418 10.3185 288.502 10.2849C288.586 10.2344 288.671 10.2175 288.755 10.2175C288.839 10.2175 288.923 10.2344 289.007 10.2849C289.091 10.3185 289.142 10.3859 289.192 10.4532C289.243 10.5205 289.259 10.6047 289.259 10.6888C289.259 10.773 289.243 10.8572 289.192 10.9245C289.142 10.9918 289.074 11.0592 289.007 11.0928C288.923 11.1433 288.839 11.1602 288.755 11.1602C288.671 11.1602 288.57 11.1433 288.502 11.0928ZM288.401 11.9176H289.125V16.4793H288.401V11.9176Z" fill="#241C1D"/>
<path d="M290.989 16.4791H290.266V11.9174H290.955V12.6244H291.006C291.124 12.3887 291.292 12.1868 291.511 12.0521C291.729 11.9174 292.015 11.8501 292.335 11.8501C292.654 11.8501 292.924 11.9174 293.142 12.0353C293.378 12.1531 293.546 12.3551 293.681 12.6076C293.798 12.8601 293.866 13.1799 293.866 13.567V16.4623H293.142V13.6175C293.142 13.3819 293.109 13.1799 293.025 13.0116C292.94 12.8432 292.823 12.7086 292.671 12.6244C292.52 12.5402 292.335 12.4897 292.116 12.4897C291.897 12.4897 291.696 12.5402 291.527 12.6412C291.359 12.7422 291.225 12.8769 291.124 13.0621C291.023 13.2472 290.972 13.466 290.972 13.7354V16.4791H290.989Z" fill="#241C1D"/>
<path d="M295.935 18.1289C295.649 18.0279 295.43 17.8764 295.262 17.6745C295.093 17.4725 294.992 17.2368 294.976 16.9506H295.733C295.783 17.1863 295.901 17.3546 296.103 17.4725C296.305 17.5903 296.574 17.6408 296.893 17.6408C297.297 17.6408 297.6 17.5566 297.819 17.3715C298.037 17.1863 298.155 16.917 298.155 16.5467V15.6209H298.071C297.987 15.7724 297.903 15.8902 297.819 15.9912C297.735 16.0922 297.6 16.1763 297.415 16.2605C297.23 16.3447 297.011 16.3783 296.759 16.3783C296.389 16.3783 296.052 16.2773 295.766 16.109C295.48 15.9238 295.245 15.6714 295.077 15.3179C294.908 14.9812 294.824 14.5772 294.824 14.1059C294.824 13.6346 294.908 13.2474 295.077 12.894C295.245 12.5405 295.463 12.288 295.766 12.1028C296.052 11.9177 296.406 11.8335 296.776 11.8335C297.028 11.8335 297.247 11.8672 297.415 11.9513C297.583 12.0355 297.718 12.1197 297.802 12.2206C297.886 12.3216 297.987 12.4395 298.071 12.5741C298.071 12.5741 298.088 12.6078 298.105 12.6246H298.155V11.9008H298.862V16.5803C298.862 16.9506 298.778 17.2705 298.609 17.523C298.441 17.7755 298.206 17.9606 297.903 18.0784C297.6 18.1963 297.264 18.2636 296.877 18.2636C296.49 18.2636 296.187 18.2131 295.901 18.1121L295.935 18.1289ZM297.583 15.5704C297.785 15.4357 297.92 15.2505 298.021 15.0149C298.122 14.7792 298.172 14.4931 298.172 14.1564C298.172 13.8198 298.122 13.5336 298.021 13.2811C297.92 13.0286 297.768 12.8435 297.583 12.7088C297.398 12.5741 297.146 12.5068 296.877 12.5068C296.607 12.5068 296.355 12.5741 296.153 12.7256C295.951 12.8771 295.817 13.0623 295.716 13.3148C295.615 13.5673 295.564 13.8534 295.564 14.1564C295.564 14.4594 295.615 14.7624 295.716 14.998C295.817 15.2337 295.968 15.4189 296.153 15.5535C296.355 15.6882 296.591 15.7555 296.877 15.7555C297.163 15.7555 297.381 15.6882 297.583 15.5704Z" fill="#241C1D"/>
<path d="M306.096 11.6145C305.928 11.4125 305.726 11.2778 305.491 11.1768C305.255 11.0758 305.003 11.0253 304.733 11.0253C304.363 11.0253 304.027 11.1263 303.724 11.3115C303.421 11.4966 303.203 11.7828 303.018 12.1363C302.849 12.5066 302.765 12.9443 302.765 13.4492C302.765 13.9542 302.849 14.3919 303.018 14.7454C303.186 15.1157 303.421 15.385 303.724 15.5702C304.027 15.7553 304.347 15.8563 304.733 15.8563C305.003 15.8563 305.255 15.8058 305.491 15.7048C305.726 15.6038 305.928 15.4523 306.096 15.2672C306.264 15.082 306.365 14.8464 306.433 14.577H307.19C307.122 14.981 306.971 15.3345 306.735 15.6375C306.5 15.9405 306.214 16.1761 305.877 16.3276C305.541 16.4791 305.154 16.5633 304.75 16.5633C304.229 16.5633 303.775 16.4286 303.354 16.1761C302.95 15.9236 302.631 15.5533 302.395 15.082C302.16 14.6107 302.059 14.0552 302.059 13.4324C302.059 12.8096 302.176 12.2541 302.395 11.7828C302.631 11.3115 302.95 10.9412 303.354 10.6887C303.758 10.4362 304.229 10.3015 304.75 10.3015C305.154 10.3015 305.541 10.3857 305.877 10.5372C306.231 10.6887 306.517 10.9243 306.735 11.2273C306.971 11.5303 307.122 11.8838 307.19 12.3046H306.433C306.382 12.0353 306.264 11.7996 306.096 11.5976V11.6145Z" fill="#241C1D"/>
<path d="M308.922 16.2774C308.603 16.0754 308.367 15.806 308.182 15.4526C307.997 15.0991 307.93 14.6951 307.93 14.2238C307.93 13.7525 308.014 13.3485 308.182 12.9781C308.35 12.6247 308.603 12.3553 308.922 12.1533C309.242 11.9514 309.595 11.8672 310.016 11.8672C310.436 11.8672 310.79 11.9682 311.092 12.1533C311.395 12.3385 311.648 12.6247 311.816 12.9781C311.984 13.3316 312.068 13.7525 312.068 14.2238C312.068 14.6951 311.984 15.0991 311.816 15.4526C311.648 15.806 311.395 16.0754 311.092 16.2774C310.773 16.4794 310.42 16.5635 310.016 16.5635C309.612 16.5635 309.242 16.4625 308.922 16.2774ZM310.756 15.6882C310.958 15.5367 311.109 15.3347 311.21 15.0654C311.311 14.8129 311.362 14.5099 311.362 14.2069C311.362 13.9039 311.311 13.601 311.21 13.3485C311.109 13.096 310.958 12.8772 310.756 12.7257C310.554 12.5742 310.302 12.49 310.016 12.49C309.73 12.49 309.477 12.5742 309.259 12.7257C309.057 12.8772 308.905 13.096 308.804 13.3485C308.704 13.601 308.653 13.9039 308.653 14.2069C308.653 14.5268 308.704 14.8129 308.804 15.0654C308.905 15.3179 309.057 15.5367 309.259 15.6882C309.461 15.8397 309.713 15.9239 310.016 15.9239C310.319 15.9239 310.554 15.8397 310.756 15.6882Z" fill="#241C1D"/>
<path d="M313.261 16.4455C313.261 16.4455 313.11 16.3277 313.059 16.2435C313.009 16.1594 312.992 16.0752 312.992 15.9742C312.992 15.8732 313.009 15.789 313.059 15.7049C313.11 15.6207 313.177 15.5534 313.261 15.5029C313.345 15.4524 313.43 15.4355 313.531 15.4355C313.631 15.4355 313.716 15.4524 313.8 15.5029C313.884 15.5534 313.951 15.6207 314.002 15.7049C314.052 15.789 314.069 15.8732 314.069 15.9742C314.069 16.0752 314.052 16.1594 314.002 16.2435C313.951 16.3277 313.884 16.395 313.8 16.4455C313.716 16.496 313.631 16.5128 313.531 16.5128C313.43 16.5128 313.345 16.4792 313.261 16.4455Z" fill="#241C1D"/>
<path d="M315.501 18.1962H314.879L315.333 15.907H316.141L315.485 18.1962H315.501Z" fill="#241C1D"/>
<path d="M319.656 10.3857H320.413V15.789H323.24V16.4624H319.656V10.3857Z" fill="#241C1D"/>
<path d="M325.95 12.5236H323.578V11.9176H325.95V12.5236ZM324.991 10.8235V15.1663C324.991 15.3515 325.025 15.4861 325.075 15.5871C325.126 15.6881 325.193 15.7555 325.277 15.7891C325.361 15.8228 325.462 15.8396 325.58 15.8396C325.631 15.8396 325.681 15.8396 325.731 15.8396C325.782 15.8396 325.832 15.8396 325.9 15.8396H326.001V16.4961C325.849 16.5129 325.681 16.5298 325.496 16.5298C325.277 16.5298 325.075 16.4793 324.89 16.3951C324.705 16.3109 324.537 16.1763 324.419 15.9911C324.302 15.806 324.234 15.604 324.234 15.3346V10.8066H324.958L324.991 10.8235Z" fill="#241C1D"/>
<path d="M327.544 16.2772C327.258 16.092 327.022 15.8059 326.854 15.4524C326.686 15.0989 326.602 14.6781 326.602 14.2068C326.602 13.7354 326.686 13.3146 326.854 12.9611C327.022 12.6076 327.241 12.3383 327.544 12.1363C327.83 11.9512 328.183 11.8502 328.553 11.8502C328.805 11.8502 329.024 11.8838 329.192 11.968C329.361 12.0522 329.495 12.1363 329.579 12.2373C329.663 12.3383 329.747 12.4562 329.832 12.574V12.5908C329.832 12.5908 329.832 12.5908 329.848 12.6076H329.899V10.3689H330.622V16.4455H329.916V15.7554H329.848L329.815 15.789C329.731 15.9237 329.647 16.0415 329.546 16.1425C329.461 16.2435 329.327 16.3445 329.142 16.4118C328.974 16.496 328.755 16.5297 328.503 16.5297C328.132 16.5297 327.796 16.4287 327.493 16.2435L327.544 16.2772ZM329.361 15.7049C329.562 15.5534 329.697 15.3514 329.798 15.0989C329.899 14.8464 329.949 14.5434 329.949 14.1899C329.949 13.8533 329.899 13.5503 329.798 13.2978C329.697 13.0453 329.546 12.8433 329.361 12.7086C329.175 12.574 328.923 12.5067 328.654 12.5067C328.385 12.5067 328.132 12.574 327.931 12.7255C327.729 12.877 327.594 13.079 327.493 13.3315C327.392 13.5839 327.342 13.8701 327.342 14.2068C327.342 14.5434 327.392 14.8296 327.493 15.0989C327.594 15.3514 327.746 15.5702 327.931 15.7217C328.132 15.8732 328.368 15.9405 328.637 15.9405C328.906 15.9405 329.142 15.8732 329.344 15.7217L329.361 15.7049Z" fill="#241C1D"/>
<path d="M332.156 16.4455C332.156 16.4455 332.004 16.3277 331.954 16.2435C331.904 16.1594 331.887 16.0752 331.887 15.9742C331.887 15.8732 331.904 15.789 331.954 15.7049C332.004 15.6207 332.072 15.5534 332.156 15.5029C332.24 15.4524 332.324 15.4355 332.425 15.4355C332.526 15.4355 332.61 15.4524 332.694 15.5029C332.778 15.5534 332.846 15.6207 332.896 15.7049C332.947 15.789 332.963 15.8732 332.963 15.9742C332.963 16.0752 332.947 16.1594 332.896 16.2435C332.846 16.3277 332.778 16.395 332.694 16.4455C332.61 16.496 332.526 16.5128 332.425 16.5128C332.324 16.5128 332.24 16.4792 332.156 16.4455Z" fill="#241C1D"/>
<path d="M189.881 32.4368H174.724V41.5265H189.444V46.8961H174.724V59.5375H189.881V64.9071H169.004V27.0671H189.881V32.4368Z" fill="#151C57"/>
<path d="M196.325 41.0383H201.86V43.2434C203.795 41.3245 205.965 40.3818 208.371 40.3818C211.147 40.3818 213.317 41.2571 214.864 43.0077C216.21 44.489 216.866 46.9129 216.866 50.2795V64.9071H211.332V51.5756C211.332 49.219 211.012 47.6031 210.356 46.6941C209.717 45.7851 208.556 45.3138 206.873 45.3138C205.04 45.3138 203.744 45.9198 202.971 47.1318C202.213 48.3269 201.843 50.4141 201.843 53.3767V64.8903H196.309V41.0215L196.325 41.0383Z" fill="#151C57"/>
<path d="M246.91 64.3516C246.91 65.4794 246.877 66.4726 246.793 67.331C246.708 68.1895 246.624 68.947 246.49 69.6035C246.103 71.4046 245.329 72.9363 244.185 74.2325C242.032 76.7237 239.071 77.9525 235.286 77.9525C232.106 77.9525 229.482 77.094 227.429 75.3771C225.309 73.6096 224.081 71.1689 223.762 68.0548H229.297C229.515 69.2331 229.869 70.1421 230.356 70.7817C231.5 72.263 233.166 73.0037 235.353 73.0037C239.39 73.0037 241.409 70.5293 241.409 65.5804V62.2476C239.222 64.4863 236.699 65.6141 233.839 65.6141C230.592 65.6141 227.934 64.4358 225.848 62.0792C223.762 59.689 222.719 56.7096 222.719 53.1242C222.719 49.5388 223.694 46.6941 225.629 44.2534C227.715 41.678 230.474 40.3818 233.906 40.3818C236.917 40.3818 239.407 41.5096 241.409 43.7484V41.0551H246.927V64.3685L246.91 64.3516ZM241.611 53.0232C241.611 50.7003 240.989 48.8487 239.744 47.4516C238.482 46.0376 236.884 45.3138 234.915 45.3138C232.829 45.3138 231.181 46.0881 229.969 47.6367C228.876 49.0339 228.321 50.8181 228.321 53.0232C228.321 55.2283 228.859 56.9789 229.969 58.3592C231.164 59.8741 232.813 60.6316 234.915 60.6316C237.018 60.6316 238.684 59.8573 239.912 58.3255C241.039 56.9284 241.594 55.161 241.594 52.9895L241.611 53.0232Z" fill="#151C57"/>
<path d="M253.035 31.124C253.035 30.1645 253.388 29.3229 254.095 28.6159C254.802 27.9089 255.643 27.5554 256.618 27.5554C257.594 27.5554 258.469 27.9089 259.159 28.6159C259.865 29.306 260.219 30.1477 260.219 31.1408C260.219 32.1339 259.865 32.9924 259.159 33.6825C258.469 34.3895 257.628 34.743 256.635 34.743C255.643 34.743 254.785 34.3895 254.095 33.6825C253.388 32.9756 253.035 32.1171 253.035 31.1071V31.124ZM259.377 41.0384V64.9072H253.859V41.0384H259.377Z" fill="#151C57"/>
<path d="M266.361 41.0383H271.895V43.2434C273.83 41.3245 276 40.3818 278.406 40.3818C281.182 40.3818 283.352 41.2571 284.9 43.0077C286.245 44.489 286.902 46.9129 286.902 50.2795V64.9071H281.367V51.5756C281.367 49.219 281.047 47.6031 280.391 46.6941C279.752 45.7851 278.591 45.3138 276.909 45.3138C275.075 45.3138 273.78 45.9198 273.006 47.1318C272.249 48.3269 271.879 50.4141 271.879 53.3767V64.8903H266.344V41.0215L266.361 41.0383Z" fill="#151C57"/>
<path d="M315.598 54.2857H298.506C298.658 56.2551 299.297 57.8037 300.424 58.9652C301.551 60.1098 302.998 60.6821 304.764 60.6821C306.144 60.6821 307.271 60.3623 308.163 59.7058C309.037 59.0493 310.047 57.8374 311.174 56.0699L315.834 58.6622C315.111 59.891 314.354 60.9346 313.563 61.8099C312.772 62.6852 311.897 63.409 310.989 63.9645C310.08 64.5368 309.088 64.9408 308.028 65.2101C306.968 65.4626 305.807 65.5973 304.579 65.5973C301.013 65.5973 298.153 64.4526 296 62.1634C293.846 59.8573 292.77 56.8106 292.77 52.9895C292.77 49.1685 293.813 46.1554 295.899 43.8157C298.002 41.5096 300.794 40.365 304.277 40.365C307.759 40.365 310.568 41.4928 312.604 43.7315C314.623 45.9535 315.649 49.0338 315.649 52.9727V54.2688L315.598 54.2857ZM309.929 49.7745C309.155 46.8288 307.305 45.3643 304.361 45.3643C303.688 45.3643 303.065 45.4653 302.476 45.6673C301.888 45.8693 301.349 46.1723 300.878 46.5426C300.39 46.9298 299.987 47.3842 299.633 47.9229C299.297 48.4615 299.028 49.0675 298.843 49.7577H309.912L309.929 49.7745Z" fill="#151C57"/>
<path d="M343.36 54.2857H326.268C326.419 56.2551 327.059 57.8037 328.186 58.9652C329.313 60.1098 330.76 60.6821 332.526 60.6821C333.906 60.6821 335.033 60.3623 335.924 59.7058C336.799 59.0493 337.809 57.8374 338.936 56.0699L343.596 58.6622C342.872 59.891 342.115 60.9346 341.325 61.8099C340.534 62.6852 339.659 63.409 338.751 63.9645C337.842 64.5368 336.85 64.9408 335.79 65.2101C334.73 65.4626 333.569 65.5973 332.341 65.5973C328.775 65.5973 325.915 64.4526 323.761 62.1634C321.608 59.8573 320.531 56.8106 320.531 52.9895C320.531 49.1685 321.574 46.1554 323.66 43.8157C325.763 41.5096 328.556 40.365 332.038 40.365C335.521 40.365 338.33 41.4928 340.366 43.7315C342.384 45.9535 343.411 49.0338 343.411 52.9727V54.2688L343.36 54.2857ZM337.691 49.7745C336.917 46.8288 335.066 45.3643 332.122 45.3643C331.449 45.3643 330.827 45.4653 330.238 45.6673C329.649 45.8693 329.111 46.1723 328.64 46.5426C328.152 46.9298 327.748 47.3842 327.395 47.9229C327.059 48.4615 326.789 49.0675 326.604 49.7577H337.674L337.691 49.7745Z" fill="#151C57"/>
<path d="M349.379 41.0383H354.897V43.1761C355.906 42.1156 356.815 41.3918 357.589 40.9878C358.396 40.5838 359.338 40.3818 360.432 40.3818C361.878 40.3818 363.409 40.8532 364.991 41.7958L362.467 46.8456C361.424 46.0881 360.398 45.7178 359.405 45.7178C356.394 45.7178 354.897 47.9902 354.897 52.5351V64.9071H349.379V41.0383Z" fill="#151C57"/>
<path d="M368.07 31.124C368.07 30.1645 368.424 29.3229 369.13 28.6159C369.837 27.9089 370.678 27.5554 371.654 27.5554C372.629 27.5554 373.504 27.9089 374.194 28.6159C374.9 29.306 375.254 30.1477 375.254 31.1408C375.254 32.1339 374.9 32.9924 374.194 33.6825C373.504 34.3895 372.663 34.743 371.67 34.743C370.678 34.743 369.82 34.3895 369.13 33.6825C368.424 32.9756 368.07 32.1171 368.07 31.1071V31.124ZM374.413 41.0384V64.9072H368.895V41.0384H374.413Z" fill="#151C57"/>
<path d="M381.396 41.0383H386.931V43.2434C388.865 41.3245 391.035 40.3818 393.441 40.3818C396.217 40.3818 398.387 41.2571 399.935 43.0077C401.281 44.489 401.937 46.9129 401.937 50.2795V64.9071H396.402V51.5756C396.402 49.219 396.082 47.6031 395.426 46.6941C394.787 45.7851 393.626 45.3138 391.944 45.3138C390.11 45.3138 388.815 45.9198 388.041 47.1318C387.284 48.3269 386.914 50.4141 386.914 53.3767V64.8903H381.379V41.0215L381.396 41.0383Z" fill="#151C57"/>
<path d="M431.985 64.3516C431.985 65.4794 431.951 66.4726 431.867 67.331C431.783 68.1895 431.699 68.947 431.564 69.6035C431.177 71.4046 430.403 72.9363 429.259 74.2325C427.106 76.7237 424.145 77.9525 420.36 77.9525C417.18 77.9525 414.556 77.094 412.503 75.3771C410.384 73.6096 409.156 71.1689 408.836 68.0548H414.371C414.589 69.2331 414.943 70.1421 415.431 70.7817C416.575 72.263 418.24 73.0037 420.427 73.0037C424.465 73.0037 426.483 70.5293 426.483 65.5804V62.2476C424.296 64.4863 421.773 65.6141 418.913 65.6141C415.666 65.6141 413.008 64.4358 410.922 62.0792C408.836 59.689 407.793 56.7096 407.793 53.1242C407.793 49.5388 408.769 46.6941 410.703 44.2534C412.789 41.678 415.548 40.3818 418.98 40.3818C421.992 40.3818 424.481 41.5096 426.483 43.7484V41.0551H432.001V64.3685L431.985 64.3516ZM426.685 53.0232C426.685 50.7003 426.063 48.8487 424.818 47.4516C423.556 46.0376 421.958 45.3138 419.99 45.3138C417.904 45.3138 416.255 46.0881 415.044 47.6367C413.95 49.0339 413.395 50.8181 413.395 53.0232C413.395 55.2283 413.933 56.9789 415.044 58.3592C416.238 59.8741 417.887 60.6316 419.99 60.6316C422.093 60.6316 423.758 59.8573 424.986 58.3255C426.113 56.9284 426.668 55.161 426.668 52.9895L426.685 53.0232Z" fill="#151C57"/>
</svg>
